<svg width="1444" height="2526" viewBox="0 0 1444 2526" fill="none" xmlns="http://www.w3.org/2000/svg">
<g clip-path="url(#clip0)">
<path d="M72.228 1.76737C60.8454 4.46547 56.0854 12.7673 57.3271 27.2954C57.5341 29.3709 60.4315 33.3143 63.7428 36.2199C70.5723 42.0312 76.988 56.3518 75.3324 62.163C73.0558 69.2196 62.0871 76.4837 53.8088 76.4837C42.0123 76.4837 38.2871 71.0875 37.4592 53.0311C37.0453 44.7292 36.4244 36.8425 36.0105 35.5973C34.3549 30.4086 29.1809 35.3897 26.9044 43.8991C25.8696 48.8801 19.247 64.031 12.4174 77.9365L0 103.257L16.9705 106.785L33.734 110.521L19.6609 117.163C11.7966 120.898 5.17393 124.219 4.76001 124.634C4.55305 125.049 10.5548 125.049 18.6261 124.634C32.2853 123.804 33.527 124.012 46.9792 132.313C54.6367 136.879 63.9497 141.86 67.8819 143.106C74.2976 145.389 75.3324 145.181 79.0576 140.615C82.3689 136.464 82.7828 133.766 81.748 124.219C79.0576 101.804 78.6437 103.465 89.1985 99.3136C102.444 94.3326 110.101 88.5213 114.654 79.8044L118.586 72.3328L111.964 65.4838C103.892 57.182 103.892 55.7291 110.722 49.2952C118.793 42.0312 128.106 26.6728 128.106 20.8615C128.106 14.2201 118.172 4.67301 108.239 1.97492C98.9255 -0.515621 82.7828 -0.723165 72.228 1.76737Z" fill="#FBF8F8"/>
<path d="M647.181 150.535C649.456 153.847 653.594 160.058 656.49 164.613L661.661 172.688L655.042 178.278C647.388 184.696 646.974 185.732 652.559 187.181C654.835 187.802 656.697 189.872 656.697 191.736C656.697 198.775 682.554 228.382 698.068 239.148L703.24 242.875L696 241.426C687.725 239.769 674.073 233.144 672.211 230.038C670.349 226.933 656.903 220.515 648.629 218.651L641.803 217.202L642.423 229.003C643.044 238.113 642.423 241.426 639.941 243.082C635.183 246.188 622.151 243.082 620.91 238.527C619.255 232.316 592.984 229.417 585.537 234.8C582.227 237.285 582.227 238.734 584.296 250.743C588.847 275.588 582.227 299.604 570.022 302.503C562.369 304.366 562.575 307.679 570.85 314.097C577.469 319.066 578.297 320.723 577.262 326.106C575.194 336.044 566.092 345.982 554.094 351.365L542.924 356.334V368.135C542.924 374.76 541.476 386.355 539.407 393.808C536.097 407.266 536.097 407.68 540.648 420.724C552.853 454.264 552.026 450.745 547.475 457.991L543.337 464.616L549.336 477.246C552.646 484.285 555.335 493.188 555.335 496.915C555.335 508.716 562.575 514.099 596.5 527.35C613.049 533.975 626.909 539.358 627.116 539.565C627.529 539.773 624.84 545.156 621.324 551.574C613.877 565.446 603.327 593.81 600.844 606.44C598.776 618.034 600.431 618.655 622.358 614.307C645.733 609.753 660.834 609.546 663.316 613.686C664.557 615.964 666.833 616.792 670.763 615.964C674.693 615.136 681.313 617.413 693.724 623.624L711.101 632.32L730.959 628.8C741.923 626.73 760.54 623.003 772.538 620.105C798.809 614.1 807.497 613.893 818.047 619.276C827.769 624.245 828.183 623.21 822.184 605.819C819.909 598.986 818.668 591.74 819.288 588.841C820.116 585.943 829.011 576.626 839.974 567.102L859.419 550.332L833.975 524.037C807.083 495.88 795.086 478.902 794.879 467.929C794.672 462.546 796.12 459.855 801.912 454.886C811.634 446.604 854.661 424.036 871.83 418.653C888.793 413.063 899.757 405.817 904.101 397.328C908.445 389.046 907.203 374.553 899.757 343.911C892.93 315.34 887.138 301.261 878.243 291.53L871.003 283.455L874.727 273.931C883.621 250.329 883.001 233.558 872.658 213.061C867.073 201.881 861.488 198.154 853.42 199.603C849.903 200.432 845.766 199.396 842.456 197.326C818.461 180.97 817.22 180.556 812.048 181.798C802.739 183.868 773.986 199.603 765.712 207.057C758.678 213.475 757.23 213.889 748.542 212.647C729.925 210.162 725.581 202.709 738.406 195.048C751.024 187.595 748.128 185.525 722.064 183.868C712.135 183.04 706.963 181.798 705.102 179.52C703.861 177.657 699.93 176.208 696.62 176.208C687.932 176.208 686.691 173.93 692.897 169.168C703.033 161.094 693.931 154.054 666.833 149.292C659.593 148.05 651.318 146.394 648.422 145.773L643.457 144.53L647.181 150.535Z" fill="#FBF8F8"/>
<path d="M66.8774 639.377C48.0697 647.087 47.6564 647.087 27.4019 643.128C14.1745 640.627 -1.53309 653.755 0.120337 665.841C0.740372 670.008 1.77376 670.425 11.4876 669.8C22.0282 669.383 22.4416 669.383 26.3685 677.093C31.3288 686.887 35.049 690.429 48.6897 697.306C61.0904 703.557 66.8774 710.85 65.4307 718.352C64.8107 721.269 65.0173 724.186 66.0507 724.811C68.3242 726.062 75.3512 722.519 82.9983 716.059C90.0254 710.017 92.7122 709.808 92.7122 714.809C92.7122 722.311 103.459 740.439 110.9 745.441C124.954 755.026 133.221 750.858 131.361 735.647C129.708 724.395 133.841 711.892 138.801 712.309C144.382 712.934 149.135 704.182 147.482 696.68C145.829 688.971 137.561 679.802 132.394 679.802C126.814 679.802 124.334 676.26 122.681 665.216C120.82 653.963 117.514 649.587 104.906 643.336C99.7393 640.627 94.3657 636.876 92.9189 635.209C89.1987 630.833 88.372 630.833 66.8774 639.377Z" fill="#FBF8F8"/>
<path d="M1.51996 752.974C-2.37762 762.246 1.73649 780.991 8.01593 783.208C12.7796 784.82 19.7087 776.96 19.7087 769.905C19.7087 758.82 4.76794 744.912 1.51996 752.974Z" fill="#FBF8F8"/>
<path d="M674.837 787.166C643.594 795.62 602.625 815.618 593.107 826.958C586.693 834.38 587.314 839.741 595.797 851.905C609.66 872.316 651.042 913.551 664.492 920.355C673.803 925.097 676.286 924.272 689.528 911.695L701.943 899.944L711.667 902.624C717.047 904.273 726.151 906.747 731.738 908.397C747.256 912.933 782.431 914.582 785.328 910.871C786.776 909.015 791.328 907.984 797.122 907.984C809.123 907.984 822.779 899.531 827.124 889.223C829.4 884.068 833.745 879.739 842.435 874.378C858.16 864.688 858.781 860.152 845.332 850.668C832.71 841.596 795.053 822.422 790.087 822.422C787.811 822.422 783.466 824.69 779.948 827.576C776.637 830.463 772.913 832.731 771.879 832.731C768.154 832.731 749.325 813.557 748.084 808.608C746.428 802.629 739.807 799.124 723.668 795.413C714.564 793.145 711.254 791.496 709.805 787.785C708.357 783.868 706.495 783.249 698.218 783.455C692.632 783.455 682.286 785.105 674.837 787.166Z" fill="#FBF8F8"/>
<path d="M1305.91 928.584C1300.14 933.114 1298.5 933.526 1294.99 931.467C1292.52 930.025 1288.4 929.408 1284.69 930.231C1277.28 931.879 1264.51 942.793 1264.51 947.53C1264.51 954.943 1239.99 972.242 1229.28 972.448C1223.51 972.448 1215.27 980.685 1214.04 987.687C1211.57 1000.87 1224.13 1020.02 1240.82 1028.05C1249.26 1032.17 1250.91 1032.17 1266.57 1029.9C1283.05 1027.64 1289.23 1024.55 1289.23 1018.58C1289.23 1014.87 1295.61 1012.19 1308.18 1010.55C1313.33 1009.93 1318.89 1007.87 1320.33 1006.22C1321.98 1004.16 1325.89 1003.13 1331.25 1003.34C1344.43 1003.96 1344.64 1003.75 1353.09 994.688C1359.68 987.481 1362.56 985.833 1371.01 984.804C1384.81 983.362 1404.17 985.833 1408.5 989.746C1414.27 994.894 1420.24 993.659 1426.63 985.833C1431.98 979.243 1445.17 950.413 1443.52 949.177C1443.11 948.765 1436.31 945.676 1428.28 942.175C1396.55 928.378 1376.57 927.966 1354.12 940.528C1337.43 949.795 1332.69 949.383 1328.98 938.675C1325.69 928.996 1320.74 923.024 1316.21 923.024C1314.36 923.024 1309.83 925.495 1305.91 928.584Z" fill="#FBF8F8"/>
<path d="M782.699 1040.79C769.633 1051.54 765.071 1053.19 756.983 1050.3C745.576 1045.95 740.806 1047.61 722.971 1061.46C704.306 1076.13 703.476 1077.99 709.076 1093.5C712.809 1104.25 713.016 1113.55 709.698 1114.79C708.246 1115.2 703.684 1114.37 699.743 1112.72C689.789 1108.59 678.175 1109 657.851 1113.96C648.311 1116.23 632.342 1119.75 621.972 1121.4C611.81 1123.26 600.611 1125.33 597.5 1125.95C593.975 1126.57 588.375 1125.54 583.605 1123.47C572.199 1118.3 569.088 1120.16 569.088 1131.74C569.088 1139.18 570.332 1142.49 574.48 1146.62C579.872 1151.99 580.909 1151.99 596.463 1148.27C600.611 1147.24 603.515 1148.07 607.662 1151.17C614.506 1156.54 618.861 1156.54 627.572 1151.37C634.416 1147.45 660.339 1140.63 670.501 1140.21C674.234 1140.01 677.345 1142.28 681.908 1148.69C689.581 1159.02 699.328 1163.98 721.519 1168.94C746.198 1174.32 769.011 1173.91 796.387 1167.5C838.694 1157.58 850.93 1148.69 851.345 1127.6C851.76 1110.65 853.211 1107.35 864.41 1102.18L874.572 1097.22L873.328 1084.61C871.669 1068.28 866.484 1050.92 861.714 1046.16C859.433 1043.89 853.419 1042.03 845.745 1041.2C839.109 1040.58 827.91 1038.1 821.273 1035.62C802.194 1029.01 795.972 1029.83 782.699 1040.79Z" fill="#FBF8F8"/>
<path d="M1359.6 1173.69C1355.06 1174.72 1348.25 1178.65 1342.68 1183.82C1334.22 1191.68 1332.16 1192.51 1322.87 1192.51C1317.3 1192.51 1312.55 1193.33 1312.55 1194.37C1312.55 1196.85 1301 1200.78 1293.98 1200.78C1288.62 1200.78 1281.6 1206.15 1281.6 1210.5C1281.6 1215.05 1267.98 1218.36 1249.41 1218.36C1232.08 1218.36 1230.02 1217.94 1221.97 1212.36C1217.22 1209.05 1213.1 1206.78 1212.89 1207.19C1212.48 1207.6 1210.62 1210.7 1208.56 1213.81C1206.5 1217.12 1201.75 1221.04 1197.83 1222.7C1192.26 1224.97 1190.81 1226.63 1191.85 1229.52C1192.46 1231.59 1191.64 1234.49 1189.78 1235.93C1188.13 1237.38 1185.24 1243.79 1183.39 1250C1178.85 1265.71 1180.5 1281.02 1188.13 1291.77C1195.77 1302.94 1219.49 1318.65 1240.33 1326.72C1255.81 1332.72 1257.46 1333.13 1262.62 1330.24C1279.95 1320.52 1287.38 1318.65 1344.12 1308.31C1379 1302.11 1378.58 1302.32 1384.57 1280.4C1389.52 1261.58 1429.55 1209.05 1438.63 1209.05C1446.06 1209.05 1445.23 1204.09 1436.36 1196.23C1428.1 1188.78 1412.01 1182.17 1402.52 1182.17C1400.25 1182.17 1396.53 1180.3 1394.06 1178.03C1389.11 1173.48 1371.57 1171.21 1359.6 1173.69Z" fill="#FBF8F8"/>
<path d="M1328.51 1334.02C1321.7 1335.47 1319.84 1336.72 1320.66 1339.2C1323.14 1345.83 1355.78 1399.05 1362.19 1407.13C1370.66 1417.9 1371.07 1419.77 1373.76 1458.91C1374.79 1477.13 1376.65 1492.87 1377.68 1493.91C1381.19 1497.43 1389.66 1486.87 1400.41 1465.74C1406.19 1454.56 1412.6 1444.62 1414.87 1443.37C1416.93 1442.34 1422.72 1441.93 1427.68 1442.55C1434.7 1443.58 1437.59 1442.96 1440.28 1440.27C1444.82 1435.71 1444.82 1429.5 1440.07 1428.05C1438 1427.43 1433.87 1421.63 1430.77 1415.21C1427.47 1408.79 1421.27 1399.05 1416.73 1393.67C1407.43 1382.69 1407.02 1379.79 1413.01 1372.13C1418.38 1365.3 1416.93 1360.74 1408.67 1359.08C1405.16 1358.46 1401.44 1356.18 1400.2 1354.11C1398.75 1351.21 1395.86 1350.18 1390.28 1350.18C1385.12 1350.18 1381.81 1349.14 1381.19 1347.07C1379.54 1342.93 1366.32 1336.72 1353.31 1333.82C1340.91 1331.33 1340.7 1331.33 1328.51 1334.02Z" fill="#FBF8F8"/>
<path d="M275.738 1498.71C265.81 1503.68 262.294 1508.44 262.087 1516.51C261.88 1539.49 248.435 1557.49 219.685 1572.81C202.31 1582.12 201.069 1583.37 200.449 1589.99C199.415 1600.96 197.14 1602.2 179.558 1602.2C158.461 1602.2 143.362 1598.06 137.777 1591.02C135.502 1587.92 129.917 1583.57 125.367 1581.5C116.059 1576.74 115.438 1577.78 120.402 1591.65C122.057 1596.61 124.953 1608.62 126.608 1618.35C128.469 1628.28 130.538 1638.01 130.951 1639.87C131.985 1642.97 130.744 1643.6 123.091 1643.6C113.784 1643.6 92.6861 1646.49 84.8262 1648.98C81.31 1650.01 78.0006 1647.94 69.1065 1639.66C57.1099 1628.28 55.0415 1627.45 50.9047 1632.42C46.1474 1638.21 36.0124 1642.15 20.2926 1643.8C11.1917 1644.84 3.53872 1646.91 1.67718 1648.77C-1.21856 1651.67 -0.804882 1652.5 6.43446 1658.5C14.2943 1664.91 14.2943 1665.12 13.2601 1677.13L12.2259 1689.13H19.0516C22.7747 1689.13 33.7371 1692.44 43.2517 1696.58C52.5594 1700.72 67.0381 1705.69 74.898 1707.55C88.3425 1710.86 89.3767 1711.48 89.3767 1716.86C89.5835 1720.8 92.2724 1724.94 98.2707 1730.52C105.096 1736.94 106.958 1740.05 106.958 1745.63C106.958 1756.4 116.886 1769.44 134.261 1781.44L149.36 1791.79L148.739 1806.28C146.671 1855.54 139.225 1907.9 129.917 1937.5C124.539 1954.68 124.539 1955.5 130.744 1956.95C134.467 1957.99 135.915 1959.64 135.915 1963.37C135.915 1974.55 162.184 1983.03 196.519 1983.03C234.164 1983.03 254.847 1987.58 268.085 1998.76C276.152 2005.38 288.769 2007.25 300.352 2003.31C309.039 2000.42 312.349 1995.86 315.865 1981.58C318.554 1970.82 328.068 1961.09 344.822 1952.19C362.403 1942.67 371.711 1943.29 408.942 1955.3C425.489 1960.68 441.416 1965.44 444.311 1965.85C451.344 1967.09 458.583 1963.37 476.371 1948.47C484.438 1941.84 493.953 1934.81 497.469 1932.94C503.674 1929.63 512.361 1918.25 512.361 1913.7C512.361 1912.25 509.466 1911.83 505.329 1912.25C499.951 1912.87 496.848 1911.63 490.85 1906.24C480.715 1897.55 477.199 1890.1 477.199 1878.1C476.992 1872.71 475.751 1865.88 474.096 1862.99C469.546 1855.12 470.373 1853.26 479.474 1847.05C488.782 1840.84 488.782 1840.84 481.129 1820.97C477.406 1811.04 476.992 1807.93 478.853 1804.83C482.37 1799.24 481.956 1794.69 476.785 1787.03C470.787 1778.34 466.65 1778.54 452.378 1787.44C446.173 1791.17 440.795 1794.07 440.382 1793.86C440.175 1793.44 441.829 1789.93 444.105 1785.79C447 1781.03 448.035 1776.68 447.207 1773.37C446.173 1769.23 447.207 1767.16 452.999 1762.81C456.929 1759.71 460.859 1754.95 461.479 1752.26C462.306 1749.36 467.064 1742.32 472.235 1736.53C477.199 1730.73 481.956 1723.49 482.783 1720.18C483.404 1716.04 485.679 1713.55 489.609 1712.1C496.642 1709.83 499.744 1704.24 506.777 1681.47C509.879 1672.36 514.637 1658.7 517.532 1651.46C524.978 1634.07 526.633 1627.87 524.978 1625.8C524.358 1624.76 518.153 1621.86 511.327 1619.59C504.501 1617.1 487.748 1610.48 473.889 1604.68C460.238 1599.1 443.484 1593.09 436.658 1591.65C428.178 1589.78 419.491 1585.44 407.908 1577.57C389.499 1565.15 380.605 1560.81 372.952 1560.81C366.747 1560.81 364.885 1558.32 363.438 1547.35C362.403 1539.7 361.99 1539.07 353.716 1537.63C342.133 1535.76 333.446 1528.93 328.068 1517.96L323.725 1509.06L313.59 1510.31L303.248 1511.75L299.938 1503.06C297.042 1495.61 295.801 1494.58 290.217 1494.58C286.701 1494.78 280.289 1496.44 275.738 1498.71Z" fill="#FBF8F8"/>
<path d="M731.014 2007.4C707.406 2010.32 692.289 2013.87 682.349 2018.68C670.546 2024.74 652.737 2043.54 649.423 2053.78C647.767 2058.79 644.66 2062.76 640.726 2064.64C630.165 2070.29 634.099 2074.88 649.216 2075.09C657.292 2075.09 658.949 2075.93 662.677 2081.98C675.723 2103.3 674.48 2102.25 685.87 2102.25C698.916 2102.04 706.371 2098.28 709.063 2090.55C711.134 2084.7 722.109 2076.13 727.493 2076.13C728.943 2076.13 731.428 2079.27 733.085 2083.03C734.741 2087 737.433 2091.18 739.09 2092.64C743.853 2096.61 751.308 2091.18 759.177 2078.22C762.698 2072.37 766.632 2067.78 767.875 2067.78C769.324 2067.78 772.638 2069.66 775.537 2071.96C778.436 2074.25 781.749 2076.13 782.785 2076.13C785.891 2076.13 799.558 2064.44 804.528 2057.33L808.877 2051.06L799.558 2052.32C790.861 2053.57 789.618 2053.15 782.992 2046.47C776.158 2039.57 771.395 2027.87 771.395 2018.05C771.395 2015.34 770.36 2011.37 769.324 2009.07C766.839 2004.68 757.52 2004.26 731.014 2007.4Z" fill="#FBF8F8"/>
<path d="M748.962 2107.06C734.843 2111.65 710.758 2116.44 684.598 2119.57C664.665 2122.28 661.136 2131.66 672.14 2153.56C681.898 2173.15 692.072 2179.41 699.962 2170.65C704.737 2165.44 709.513 2165.44 719.894 2170.86C730.483 2176.07 732.974 2175.24 732.974 2166.27C733.182 2160.23 734.22 2158.77 741.072 2155.64C745.224 2153.56 748.754 2150.64 748.962 2149.18C748.962 2147.93 749.169 2143.55 749.377 2139.59C749.792 2133.33 751.453 2131.04 761.834 2123.11C787.165 2103.72 781.559 2096.64 748.962 2107.06Z" fill="#FBF8F8"/>
<path d="M1307.14 2177.57C1299.27 2183.76 1274.02 2194.69 1257.66 2199.02C1241.93 2202.94 1240.9 2202.94 1236.13 2199.44C1224.96 2191.6 1222.27 2190.77 1213.99 2191.8C1209.43 2192.42 1197.84 2191.39 1188.52 2189.74C1179 2187.89 1169.27 2187.06 1166.79 2187.89C1164.31 2188.5 1157.47 2192.84 1151.47 2197.37C1145.47 2201.91 1139.88 2205 1138.64 2204.39C1135.95 2202.74 1115.25 2235.12 1103.24 2259.87C1091.65 2283.38 1088.75 2286.89 1070.74 2295.76C1063.5 2299.27 1057.7 2302.57 1057.7 2302.98C1057.7 2303.18 1061.43 2307.31 1065.98 2312.05C1070.53 2316.59 1074.26 2321.95 1074.26 2323.81C1074.26 2330.62 1080.68 2339.28 1088.75 2343.4C1097.65 2347.94 1102.2 2354.34 1100.34 2359.29C1096.82 2368.16 1115.25 2380.32 1132.43 2380.53C1148.37 2380.53 1160.79 2386.72 1151.89 2390.02C1146.92 2392.08 1148.16 2395.59 1157.06 2404.25C1162.65 2409.61 1165.34 2414.15 1165.34 2417.86C1165.34 2423.64 1169.27 2425.91 1179.83 2425.91C1182.73 2425.91 1190.8 2427.97 1197.43 2430.24C1208.4 2434.16 1212.74 2434.57 1235.72 2433.54C1266.15 2432.1 1272.36 2430.65 1295.75 2419.1C1311.69 2411.26 1314.8 2410.44 1327.84 2410.65C1346.88 2410.85 1365.51 2416.42 1372.14 2424.05C1376.28 2428.59 1379.17 2430.03 1385.18 2430.03C1393.66 2430.03 1397.18 2426.11 1397.18 2416.42C1397.18 2402.39 1410.84 2361.97 1415.61 2361.97C1416.64 2361.97 1419.12 2364.03 1420.99 2366.51C1423.89 2371.04 1424.51 2371.04 1429.68 2368.16C1432.79 2366.3 1437.55 2361.76 1440.03 2358.05C1444.38 2351.86 1444.59 2350.42 1441.9 2346.7C1437.96 2340.52 1425.96 2339.9 1417.05 2345.26C1407.33 2351.24 1393.04 2351.04 1387.45 2344.85C1381.45 2338.25 1381.04 2336.19 1377.52 2300.5C1375.65 2282.76 1373.17 2264.41 1372.14 2259.87C1367.58 2243.37 1338.19 2191.6 1326.59 2179.84C1320.18 2173.65 1313.35 2172.83 1307.14 2177.57Z" fill="#FBF8F8"/>
<path d="M1157.79 2436.12C1149.74 2439.85 1146.03 2446.27 1147.68 2454.14C1149.13 2461.18 1147.47 2466.36 1143.76 2466.36C1142.32 2466.36 1138.6 2470.5 1135.51 2475.89C1127.26 2489.97 1113.43 2492.87 1105.18 2482.31C1102.29 2478.58 1101.26 2478.37 1098.58 2480.65C1093.42 2485 1094.66 2492.25 1102.5 2501.78C1111.58 2512.55 1113.02 2515.03 1114.67 2524.56C1115.5 2529.12 1119.42 2535.95 1124.37 2541.75C1131.8 2550.24 1132.62 2552.11 1131.59 2558.53C1130.35 2564.95 1130.97 2566.6 1139.22 2574.68C1152.63 2588.35 1164.8 2594.56 1181.1 2596.63C1188.94 2597.67 1195.54 2598.29 1195.54 2598.08C1195.75 2598.08 1187.5 2585.66 1176.98 2570.75C1157.17 2542.37 1144.79 2519.8 1144.79 2512.13C1144.79 2509.65 1145.82 2505.71 1146.86 2503.43C1148.92 2499.91 1151.39 2499.5 1171.2 2499.5C1207.92 2499.5 1259.09 2505.09 1271.26 2510.27C1277.04 2512.75 1281.99 2514 1282.4 2512.96C1285.7 2502.61 1290.65 2496.39 1295.4 2496.39C1302.62 2496.39 1303.44 2503.02 1296.43 2505.71C1291.89 2507.37 1291.48 2508.4 1293.33 2511.72C1294.36 2514 1296.43 2516.48 1297.46 2517.1C1300.55 2518.97 1299.73 2530.98 1296.43 2535.54C1291.06 2542.58 1292.71 2549.41 1302.2 2559.15L1310.87 2568.05L1303.65 2574.06L1296.43 2579.86L1302.2 2585.24C1306.95 2589.59 1307.57 2591.25 1305.71 2594.77C1304.47 2597.26 1301.38 2598.91 1298.49 2598.91C1295.19 2598.91 1291.68 2601.4 1287.97 2606.16C1284.26 2611.13 1280.95 2613.41 1278.27 2613C1274.97 2612.58 1273.53 2614.03 1272.29 2619.42C1271.05 2623.77 1268.78 2626.67 1266.1 2627.49C1262.59 2628.32 1262.18 2629.57 1263.21 2636.81C1264.86 2646.34 1278.27 2667.88 1283.22 2668.92C1285.29 2669.33 1290.65 2665.4 1295.6 2659.8C1300.55 2654.63 1306.74 2649.45 1309.22 2648.41C1319.74 2644.48 1344.08 2658.15 1346.35 2669.54C1346.97 2673.06 1348.83 2676.37 1350.48 2676.99C1352.13 2677.62 1359.56 2675.34 1367.19 2671.82C1377.3 2667.05 1386.38 2664.77 1400.61 2663.12C1423.93 2660.63 1427.64 2657.73 1425.99 2644.48C1424.96 2636.81 1425.58 2635.57 1434.45 2626.87C1444.56 2616.72 1445.79 2614.03 1440.84 2612.17C1435.89 2610.3 1425.99 2593.32 1423.31 2582.55C1421.24 2574.06 1421.45 2571.37 1424.13 2565.98C1427.84 2558.94 1428.46 2541.54 1425.37 2536.78C1423.51 2534.09 1422.48 2534.5 1418.56 2539.26C1415.88 2542.58 1413.2 2545.06 1412.58 2545.06C1411.75 2545.06 1405.15 2540.92 1397.93 2535.74C1388.85 2529.53 1383.9 2524.35 1382.25 2519.8C1377.09 2506.13 1373.38 2500.33 1364.92 2494.11C1358.73 2489.35 1355.23 2484.79 1352.75 2477.54C1350.69 2471.54 1345.74 2464.08 1340.78 2459.11C1333.36 2451.86 1331.29 2450.83 1322.63 2451.03C1310.25 2451.03 1290.86 2455.38 1285.91 2459.11C1282.19 2461.8 1282.19 2462.22 1285.7 2475.89C1288.79 2487.9 1288.79 2490.39 1286.53 2492.87C1281.57 2497.84 1276.83 2490.59 1276.83 2477.96C1276.83 2467.4 1274.35 2462.22 1269.4 2462.22C1268.16 2462.22 1266.51 2464.08 1265.89 2466.36C1263.42 2475.89 1238.25 2468.85 1202.56 2448.76C1175.74 2433.84 1167.9 2431.57 1157.79 2436.12Z" fill="#FBF8F8"/>
</g>
<defs>
<clipPath id="clip0">
<rect width="1443.66" height="4055.06" fill="white"/>
</clipPath>
</defs>
</svg>
